HIERARCHY
ROOT newVegas:Hips
{
	OFFSET 0.000000 96.479958 0.000000
	CHANNELS 6 Xposition Yposition Zposition Xrotation Yrotation Zrotation
	JOINT newVegas:Pelvis
	{
		OFFSET 0.000000 0.000000 0.000000
		CHANNELS 3 Xrotation Yrotation Zrotation
		JOINT newVegas:LeftUpLeg
		{
			OFFSET 18.735201 -5.666702 -4.541200
			CHANNELS 3 Xrotation Yrotation Zrotation
			JOINT newVegas:LeftLeg
			{
				OFFSET -0.021200 -31.938179 0.493100
				CHANNELS 3 Xrotation Yrotation Zrotation
				JOINT newVegas:LeftFoot
				{
					OFFSET 0.021200 -31.938179 -4.336299
					CHANNELS 3 Xrotation Yrotation Zrotation
					JOINT newVegas:LeftToeBase
					{
						OFFSET 0.943001 -26.722000 15.023500
						CHANNELS 3 Xrotation Yrotation Zrotation
						End Site
						{
							OFFSET 0.000000 30.670183 0.000000
						}
					}
				}
				JOINT newVegas:Left_PantLeg
				{
					OFFSET 0.663870 -9.044666 -1.108900
					CHANNELS 3 Xrotation Yrotation Zrotation
					End Site
					{
						OFFSET 1.415995 20.635357 0.000000
					}
				}
			}
		}
		JOINT newVegas:RightUpLeg
		{
			OFFSET -18.735201 -5.666702 -4.541200
			CHANNELS 3 Xrotation Yrotation Zrotation
			JOINT newVegas:RightLeg
			{
				OFFSET 0.018946 -31.938133 0.493100
				CHANNELS 3 Xrotation Yrotation Zrotation
				JOINT newVegas:RightFoot
				{
					OFFSET -0.018946 -31.938126 -4.336299
					CHANNELS 3 Xrotation Yrotation Zrotation
					JOINT newVegas:RightToeBase
					{
						OFFSET -0.943001 -26.722004 15.023500
						CHANNELS 3 Xrotation Yrotation Zrotation
						End Site
						{
							OFFSET 0.000000 30.670187 0.000000
						}
					}
				}
				JOINT newVegas:Right_PantLeg
				{
					OFFSET -0.661674 -9.044716 -1.108900
					CHANNELS 3 Xrotation Yrotation Zrotation
					End Site
					{
						OFFSET -1.415958 20.635269 0.000000
					}
				}
			}
		}
	}
	JOINT newVegas:Spine
	{
		OFFSET 0.000000 10.199997 -0.299500
		CHANNELS 3 Xrotation Yrotation Zrotation
		JOINT newVegas:Spine1
		{
			OFFSET 0.000000 11.900002 -1.516600
			CHANNELS 3 Xrotation Yrotation Zrotation
			JOINT newVegas:Spine2
			{
				OFFSET 0.000000 13.600006 -2.842500
				CHANNELS 3 Xrotation Yrotation Zrotation
				JOINT newVegas:Neck
				{
					OFFSET 0.000000 9.624100 -2.890100
					CHANNELS 3 Xrotation Yrotation Zrotation
					JOINT newVegas:Head
					{
						OFFSET 0.000000 14.068802 -1.351900
						CHANNELS 3 Xrotation Yrotation Zrotation
						JOINT newVegas:Hair_Back
						{
							OFFSET 0.000000 3.231903 -17.524799
							CHANNELS 3 Xrotation Yrotation Zrotation
							End Site
							{
								OFFSET 0.000000 19.849884 0.000000
							}
						}
						JOINT newVegas:Hair_Front
						{
							OFFSET 0.000000 31.260406 4.573800
							CHANNELS 3 Xrotation Yrotation Zrotation
							JOINT newVegas:Hair_Front1
							{
								OFFSET 0.000000 2.284103 11.993300
								CHANNELS 3 Xrotation Yrotation Zrotation
								JOINT newVegas:Hair_Front2
								{
									OFFSET 0.000000 2.284103 11.993300
									CHANNELS 3 Xrotation Yrotation Zrotation
									End Site
									{
										OFFSET 0.000000 12.208862 0.000000
									}
								}
							}
						}
						JOINT newVegas:Jowel
						{
							OFFSET 0.000000 -7.458206 6.864100
							CHANNELS 3 Xrotation Yrotation Zrotation
							End Site
							{
								OFFSET 0.000000 19.849884 0.000000
							}
						}
					}
				}
				JOINT newVegas:LeftShoulder
				{
					OFFSET 15.263000 10.923401 -0.547700
					CHANNELS 3 Xrotation Yrotation Zrotation
					JOINT newVegas:LeftArm
					{
						OFFSET 25.438599 -2.830597 -13.032500
						CHANNELS 3 Xrotation Yrotation Zrotation
						JOINT newVegas:LeftForeArm
						{
							OFFSET 29.960503 0.000000 0.000000
							CHANNELS 3 Xrotation Yrotation Zrotation
							JOINT newVegas:LeftHand
							{
								OFFSET 27.849251 0.000000 0.000000
								CHANNELS 3 Xrotation Yrotation Zrotation
								JOINT newVegas:LeftHandThumb1
								{
									OFFSET 4.487587 -3.305161 6.305391
									CHANNELS 3 Xrotation Yrotation Zrotation
									JOINT newVegas:LeftHandThumb2
									{
										OFFSET 5.480453 -3.164139 3.164143
										CHANNELS 3 Xrotation Yrotation Zrotation
										JOINT newVegas:LeftHandThumb3
										{
											OFFSET 5.159721 -2.978973 2.978967
											CHANNELS 3 Xrotation Yrotation Zrotation
											End Site
											{
												OFFSET 2.494507 5.926697 1.738678
											}
										}
									}
								}
								JOINT newVegas:LeftHandIndex1
								{
									OFFSET 18.578728 -0.527832 5.208049
									CHANNELS 3 Xrotation Yrotation Zrotation
									JOINT newVegas:LeftHandIndex2
									{
										OFFSET 3.192009 0.000000 0.000000
										CHANNELS 3 Xrotation Yrotation Zrotation
										JOINT newVegas:LeftHandIndex3
										{
											OFFSET 3.835129 0.000000 0.000000
											CHANNELS 3 Xrotation Yrotation Zrotation
											End Site
											{
												OFFSET -0.034599 3.816971 0.371180
											}
										}
									}
								}
								JOINT newVegas:LeftHandMiddle1
								{
									OFFSET 18.476105 0.000000 0.000000
									CHANNELS 3 Xrotation Yrotation Zrotation
									JOINT newVegas:LeftHandMiddle2
									{
										OFFSET 3.324875 0.000000 0.000000
										CHANNELS 3 Xrotation Yrotation Zrotation
										JOINT newVegas:LeftHandMiddle3
										{
											OFFSET 4.596550 0.000000 0.000000
											CHANNELS 3 Xrotation Yrotation Zrotation
											End Site
											{
												OFFSET 0.057701 4.578827 0.399218
											}
										}
									}
								}
								JOINT newVegas:LeftHandRing1
								{
									OFFSET 17.732719 0.121887 -4.201567
									CHANNELS 3 Xrotation Yrotation Zrotation
									JOINT newVegas:LeftHandRing2
									{
										OFFSET 2.733170 0.000000 0.000000
										CHANNELS 3 Xrotation Yrotation Zrotation
										JOINT newVegas:LeftHandRing3
										{
											OFFSET 3.178268 0.000000 0.000000
											CHANNELS 3 Xrotation Yrotation Zrotation
											End Site
											{
												OFFSET 0.119102 3.170624 0.185394
											}
										}
									}
								}
								JOINT newVegas:LeftHandPinky1
								{
									OFFSET 15.989624 -0.606689 -7.535461
									CHANNELS 3 Xrotation Yrotation Zrotation
									JOINT newVegas:LeftHandPinky2
									{
										OFFSET 2.538986 0.000000 0.000000
										CHANNELS 3 Xrotation Yrotation Zrotation
										JOINT newVegas:LeftHandPinky3
										{
											OFFSET 2.593102 0.000000 0.000000
											CHANNELS 3 Xrotation Yrotation Zrotation
											End Site
											{
												OFFSET -0.150902 2.584198 0.152708
											}
										}
									}
								}
							}
							JOINT newVegas:Left_Sleeve
							{
								OFFSET 0.267448 -0.649796 0.577675
								CHANNELS 3 Xrotation Yrotation Zrotation
								End Site
								{
									OFFSET 0.000000 15.991241 0.000000
								}
							}
							JOINT newVegas:Left_CapeC
							{
								OFFSET 15.715958 -8.608795 -6.935905
								CHANNELS 3 Xrotation Yrotation Zrotation
								JOINT newVegas:Left_CapeC1
								{
									OFFSET 0.000000 -8.688499 0.000000
									CHANNELS 3 Xrotation Yrotation Zrotation
									End Site
									{
										OFFSET 0.000000 8.688499 0.000000
									}
								}
							}
						}
						JOINT newVegas:Left_CapeB
						{
							OFFSET 26.118385 -8.608795 -7.079235
							CHANNELS 3 Xrotation Yrotation Zrotation
							JOINT newVegas:Left_CapeB1
							{
								OFFSET 0.000000 -8.688499 0.000000
								CHANNELS 3 Xrotation Yrotation Zrotation
								End Site
								{
									OFFSET 0.000000 8.688499 0.000000
								}
							}
						}
						JOINT newVegas:Left_CapeA
						{
							OFFSET 5.115639 -8.608795 -10.395809
							CHANNELS 3 Xrotation Yrotation Zrotation
							JOINT newVegas:Left_CapeA1
							{
								OFFSET 0.000000 -8.688499 0.000000
								CHANNELS 3 Xrotation Yrotation Zrotation
								End Site
								{
									OFFSET 0.000000 8.688499 0.000000
								}
							}
						}
					}
				}
				JOINT newVegas:RightShoulder
				{
					OFFSET -15.263000 10.923401 -0.547700
					CHANNELS 3 Xrotation Yrotation Zrotation
					JOINT newVegas:RightArm
					{
						OFFSET -25.438599 -2.830597 -13.032500
						CHANNELS 3 Xrotation Yrotation Zrotation
						JOINT newVegas:RightForeArm
						{
							OFFSET -29.960503 0.000000 0.000000
							CHANNELS 3 Xrotation Yrotation Zrotation
							JOINT newVegas:RightHand
							{
								OFFSET -27.849251 0.000000 0.000000
								CHANNELS 3 Xrotation Yrotation Zrotation
								JOINT newVegas:RightHandThumb1
								{
									OFFSET -4.487587 -3.305161 6.305391
									CHANNELS 3 Xrotation Yrotation Zrotation
									JOINT newVegas:RightHandThumb2
									{
										OFFSET -5.480453 -3.164139 3.164143
										CHANNELS 3 Xrotation Yrotation Zrotation
										JOINT newVegas:RightHandThumb3
										{
											OFFSET -5.159721 -2.978973 2.978967
											CHANNELS 3 Xrotation Yrotation Zrotation
											End Site
											{
												OFFSET -2.494507 5.926697 1.738678
											}
										}
									}
								}
								JOINT newVegas:RightHandIndex1
								{
									OFFSET -18.578728 -0.527832 5.208049
									CHANNELS 3 Xrotation Yrotation Zrotation
									JOINT newVegas:RightHandIndex2
									{
										OFFSET -3.192009 0.000000 0.000000
										CHANNELS 3 Xrotation Yrotation Zrotation
										JOINT newVegas:RightHandIndex3
										{
											OFFSET -3.835129 0.000000 0.000000
											CHANNELS 3 Xrotation Yrotation Zrotation
											End Site
											{
												OFFSET 0.034599 3.816971 0.371180
											}
										}
									}
								}
								JOINT newVegas:RightHandMiddle1
								{
									OFFSET -18.476105 0.000000 0.000000
									CHANNELS 3 Xrotation Yrotation Zrotation
									JOINT newVegas:RightHandMiddle2
									{
										OFFSET -3.324875 0.000000 0.000000
										CHANNELS 3 Xrotation Yrotation Zrotation
										JOINT newVegas:RightHandMiddle3
										{
											OFFSET -4.596550 0.000000 0.000000
											CHANNELS 3 Xrotation Yrotation Zrotation
											End Site
											{
												OFFSET -0.057701 4.578827 0.399218
											}
										}
									}
								}
								JOINT newVegas:RightHandRing1
								{
									OFFSET -17.732719 0.121887 -4.201567
									CHANNELS 3 Xrotation Yrotation Zrotation
									JOINT newVegas:RightHandRing2
									{
										OFFSET -2.733170 0.000000 0.000000
										CHANNELS 3 Xrotation Yrotation Zrotation
										JOINT newVegas:RightHandRing3
										{
											OFFSET -3.178268 0.000000 0.000000
											CHANNELS 3 Xrotation Yrotation Zrotation
											End Site
											{
												OFFSET -0.119102 3.170624 0.185394
											}
										}
									}
								}
								JOINT newVegas:RightHandPinky1
								{
									OFFSET -15.989624 -0.606689 -7.535461
									CHANNELS 3 Xrotation Yrotation Zrotation
									JOINT newVegas:RightHandPinky2
									{
										OFFSET -2.538986 0.000000 0.000000
										CHANNELS 3 Xrotation Yrotation Zrotation
										JOINT newVegas:RightHandPinky3
										{
											OFFSET -2.593102 0.000000 0.000000
											CHANNELS 3 Xrotation Yrotation Zrotation
											End Site
											{
												OFFSET 0.150902 2.584198 0.152708
											}
										}
									}
								}
							}
							JOINT newVegas:Right_CapeC
							{
								OFFSET -15.715958 -8.608795 -6.935905
								CHANNELS 3 Xrotation Yrotation Zrotation
								JOINT newVegas:Right_CapeC1
								{
									OFFSET 0.000000 -8.688499 0.000000
									CHANNELS 3 Xrotation Yrotation Zrotation
									End Site
									{
										OFFSET 0.000000 8.688499 0.000000
									}
								}
							}
							JOINT newVegas:Right_Sleeve
							{
								OFFSET -0.267448 -0.649994 0.577675
								CHANNELS 3 Xrotation Yrotation Zrotation
								End Site
								{
									OFFSET 0.000000 15.991302 0.000000
								}
							}
						}
						JOINT newVegas:Right_CapeA
						{
							OFFSET -5.115540 -8.608795 -10.395824
							CHANNELS 3 Xrotation Yrotation Zrotation
							JOINT newVegas:Right_CapeA1
							{
								OFFSET 0.000000 -8.688499 0.000000
								CHANNELS 3 Xrotation Yrotation Zrotation
								End Site
								{
									OFFSET 0.000000 8.688499 0.000000
								}
							}
						}
						JOINT newVegas:Right_CapeB
						{
							OFFSET -26.118187 -8.608795 -7.079266
							CHANNELS 3 Xrotation Yrotation Zrotation
							JOINT newVegas:Right_CapeB1
							{
								OFFSET 0.000000 -8.688499 0.000000
								CHANNELS 3 Xrotation Yrotation Zrotation
								End Site
								{
									OFFSET 0.000000 8.688499 0.000000
								}
							}
						}
					}
				}
				JOINT newVegas:Left_Collar
				{
					OFFSET 18.625099 8.655502 8.828100
					CHANNELS 3 Xrotation Yrotation Zrotation
					JOINT newVegas:Left_Collar1
					{
						OFFSET 14.783401 10.540405 -1.259500
						CHANNELS 3 Xrotation Yrotation Zrotation
						End Site
						{
							OFFSET 0.000000 18.199875 0.000000
						}
					}
				}
				JOINT newVegas:Collar_Back
				{
					OFFSET 0.000000 15.630707 -20.132601
					CHANNELS 3 Xrotation Yrotation Zrotation
					End Site
					{
						OFFSET 0.000000 22.523010 0.000000
					}
				}
				JOINT newVegas:Left_Peck
				{
					OFFSET 17.239599 -5.132599 25.482599
					CHANNELS 3 Xrotation Yrotation Zrotation
					End Site
					{
						OFFSET 0.000000 22.523010 0.000000
					}
				}
				JOINT newVegas:Right_Peck
				{
					OFFSET -17.239599 -5.132202 25.482599
					CHANNELS 3 Xrotation Yrotation Zrotation
					End Site
					{
						OFFSET 0.000000 22.523010 0.000000
					}
				}
				JOINT newVegas:Right_Collar
				{
					OFFSET -18.625099 8.655792 8.828100
					CHANNELS 3 Xrotation Yrotation Zrotation
					JOINT newVegas:Right_Collar1
					{
						OFFSET -14.783401 10.539993 -1.259500
						CHANNELS 3 Xrotation Yrotation Zrotation
						End Site
						{
							OFFSET 0.000000 18.199631 0.000000
						}
					}
				}
			}
		}
		JOINT newVegas:Belly
		{
			OFFSET 0.000000 -6.540398 9.014299
			CHANNELS 3 Xrotation Yrotation Zrotation
			End Site
			{
				OFFSET 0.000000 11.566666 0.000000
			}
		}
	}
	JOINT newVegas:ElvisFacialAnim_Joint
	{
		OFFSET 1.000000 -95.330101 -8.825800
		CHANNELS 3 Xrotation Yrotation Zrotation
		End Site
		{
			OFFSET 0.000000 35.315800 0.000000
		}
	}
}
MOTION
Frames: 4
Frame Time: 0.016667
0.420590 111.917740 2.970749 -89.650761 0.337122 0.802664 -0.000000 0.000000 -0.000000 -11.714270 14.651874 23.034801 13.267863 6.353847 0.135268 29.014582 29.298988 -33.793577 0.000001 -0.000002 0.000000 0.000001 -0.000000 -0.000000 -14.198784 -13.650359 -17.298301 15.214330 -6.797501 -7.432369 38.741612 -29.042999 33.820665 -0.000001 0.000001 -0.000001 -0.000000 0.000001 -0.000000 1.064077 -1.161375 0.863852 -0.317535 -2.434543 0.230484 -0.303412 -2.418348 0.331943 -3.650834 0.012725 -0.656615 -3.650809 0.012727 -0.656623 0.000000 0.000000 0.000000 -3.650857 0.012742 -0.656618 -3.650789 0.012657 -0.656603 -0.000000 0.000000 0.000000 0.000000 0.000000 0.000000 0.422244 -0.102999 -4.005443 35.263662 -28.378546 -54.538398 0.000081 -80.454192 0.000067 -13.958253 -3.109599 -10.085416 6.590537 -4.958657 16.122663 7.178848 21.567325 2.147304 0.000002 -0.000001 -0.000001 0.659522 4.932363 -26.024464 0.169794 1.401617 -13.813545 0.000003 -0.000003 -0.000001 1.376922 6.461958 -24.994171 0.169874 1.401963 -13.817113 -0.000000 -0.000001 0.000001 2.098726 8.644292 -21.209682 0.169798 1.401617 -13.813540 -0.000001 0.000001 0.000000 2.123422 10.735881 -14.817559 0.167501 1.392256 -13.719343 -0.000000 0.000002 0.000001 0.000001 0.000002 -0.000004 0.000001 0.000002 -0.000004 -0.000000 0.000002 -0.000004 -0.000001 0.000000 -0.000000 -0.000001 -0.000001 0.000000 -0.000001 0.000000 -0.000000 -0.000002 0.000001 -0.000000 0.646692 1.792568 13.881977 39.542929 30.913354 33.651659 -0.002636 101.347904 0.002601 -34.905337 -9.303369 11.136946 -13.111089 7.817362 -0.096474 7.918235 -27.751673 -3.100778 0.000000 0.000000 -0.000000 2.082857 12.897795 37.347447 0.497047 -2.095306 26.687141 -0.000001 0.000002 -0.000003 -4.321322 1.650222 38.533482 0.529964 -2.159504 27.573969 0.000001 -0.000000 0.000003 -1.394398 -1.262384 31.742013 0.254164 -1.518984 18.997013 -0.000002 -0.000001 -0.000002 0.189707 -3.422252 14.147215 0.162211 -1.219712 15.150960 0.000000 0.000002 0.000000 -0.000000 -0.000000 0.000000 -0.000000 0.000000 0.000001 -0.000000 -0.000000 0.000001 -0.000001 -0.000002 -0.000000 -0.000000 -0.000001 0.000000 -0.000001 -0.000002 -0.000000 -0.000001 -0.000001 0.000000 0.000000 0.000001 -0.000000 0.000000 0.000001 -0.000000 0.000000 0.000001 -0.000000 0.000000 0.000001 -0.000000 0.000000 0.000001 -0.000000 0.000000 0.000001 -0.000000 0.000000 0.000001 -0.000000 -0.000000 -0.000000 0.000000 -0.000000 0.000000 -0.000000 
0.409867 111.915108 2.997391 -89.671593 0.430577 0.938722 -0.000000 -0.000000 -0.000000 -11.753896 14.466911 22.875483 13.393134 6.249531 0.185886 29.051411 29.292441 -33.732658 0.000000 -0.000001 0.000000 0.000000 0.000001 0.000003 -14.280262 -13.726215 -17.638644 15.335267 -6.445339 -7.164576 39.152663 -29.033198 33.818200 0.000002 0.000002 -0.000002 -0.000000 -0.000000 -0.000002 1.042549 -1.121875 0.860579 -0.418975 -2.373052 0.195801 -0.397363 -2.369104 0.309557 -3.637893 -0.002036 -0.629713 -3.637906 -0.002035 -0.629714 0.000000 0.000000 -0.000000 -3.637847 -0.002038 -0.629715 -3.637944 -0.002036 -0.629713 0.000000 -0.000000 -0.000000 0.000000 0.000000 0.000000 0.461627 -0.727168 -4.005711 35.651685 -28.307477 -54.248293 -0.000138 -80.590065 -0.000110 -14.391673 -3.136422 -9.670780 6.590538 -4.958659 16.122667 7.178846 21.567326 2.147300 0.000001 -0.000003 0.000000 0.659525 4.932361 -26.024465 0.169792 1.401615 -13.813541 0.000000 -0.000003 -0.000002 1.376925 6.461954 -24.994174 0.169878 1.401966 -13.817116 0.000000 0.000002 0.000000 2.098729 8.644287 -21.209682 0.169799 1.401616 -13.813541 0.000002 -0.000001 -0.000001 2.123425 10.735878 -14.817564 0.167504 1.392248 -13.719344 -0.000001 -0.000002 0.000001 -0.000001 -0.000001 -0.000003 -0.000001 -0.000001 -0.000003 -0.000002 -0.000001 -0.000002 -0.000003 0.000002 -0.000001 -0.000003 0.000001 -0.000001 -0.000003 0.000002 -0.000001 -0.000004 0.000003 -0.000002 0.607866 1.777501 13.847700 37.902581 30.020054 36.590092 -0.008182 101.247733 0.008107 -36.596833 -9.378158 11.050559 -12.879220 8.193457 0.480527 7.914294 -27.716996 -3.098594 0.000003 -0.000001 -0.000004 2.149291 12.733853 36.856862 0.492750 -2.086756 26.569559 -0.000000 0.000001 0.000001 -4.264411 1.622383 38.347339 0.526204 -2.152298 27.474089 -0.000001 -0.000001 -0.000002 -1.380214 -1.295197 31.813358 0.261196 -1.539242 19.260462 -0.000001 -0.000001 -0.000001 0.197466 -3.452552 14.531518 0.170497 -1.249862 15.534978 -0.000002 0.000003 0.000001 0.000003 0.000000 -0.000000 0.000001 -0.000001 -0.000002 0.000003 0.000000 -0.000001 -0.000001 -0.000001 -0.000003 -0.000001 0.000000 -0.000001 -0.000001 -0.000001 -0.000003 -0.000001 -0.000000 -0.000001 0.000000 0.000000 -0.000000 0.000000 0.000000 -0.000000 0.000000 0.000000 -0.000000 0.000000 0.000000 -0.000000 0.000000 0.000000 -0.000000 0.000000 0.000000 -0.000000 0.000000 0.000000 -0.000000 -0.000000 -0.000000 -0.000000 -0.000000 -0.000000 -0.000000 
0.428272 111.913162 3.001068 -89.707554 0.529198 1.074936 -0.000000 -0.000000 0.000000 -11.794598 14.264636 22.702695 13.574218 6.142212 0.236306 29.112271 29.267938 -33.651072 0.000000 0.000000 -0.000001 0.000000 -0.000001 -0.000000 -14.383741 -13.786885 -18.028192 15.301430 -6.149040 -6.895309 40.050392 -29.003671 33.832297 -0.000001 0.000002 -0.000001 -0.000001 0.000000 0.000003 1.021089 -1.082473 0.853993 -0.521705 -2.314062 0.161337 -0.492039 -2.319871 0.287192 -3.599458 -0.017362 -0.601963 -3.599465 -0.017366 -0.601960 -0.000000 -0.000000 -0.000000 -3.599433 -0.017358 -0.601963 -3.599474 -0.017368 -0.601963 0.000000 0.000000 0.000000 -0.000000 -0.000000 -0.000000 0.507659 -1.375825 -4.005944 35.944499 -28.114968 -54.137090 0.000069 -80.729257 0.000079 -14.694928 -3.140307 -9.355481 6.590538 -4.958663 16.122658 7.178847 21.567325 2.147305 0.000001 -0.000001 -0.000001 0.659521 4.932355 -26.024464 0.169791 1.401619 -13.813539 -0.000001 0.000001 0.000001 1.376922 6.461951 -24.994179 0.169873 1.401962 -13.817113 0.000002 -0.000000 -0.000001 2.098728 8.644281 -21.209684 0.169798 1.401612 -13.813540 0.000001 0.000001 0.000001 2.123426 10.735875 -14.817566 0.167504 1.392249 -13.719340 -0.000000 -0.000005 -0.000002 -0.000001 0.000003 -0.000004 -0.000001 0.000003 -0.000004 -0.000002 0.000003 -0.000004 0.000000 -0.000001 0.000001 -0.000000 -0.000002 0.000002 0.000000 -0.000001 0.000001 -0.000001 -0.000000 0.000001 0.569202 1.762516 13.812975 35.720708 29.082105 39.718575 -0.034290 100.780029 0.033900 -38.395809 -9.656049 11.081963 -12.219774 9.247313 2.040357 7.903550 -27.622900 -3.092655 0.000000 -0.000000 -0.000001 2.313704 12.270295 35.528131 0.481198 -2.063502 26.250420 0.000000 0.000003 -0.000001 -4.110319 1.543897 37.842332 0.516080 -2.132709 27.202996 0.000000 0.000000 0.000000 -1.341787 -1.387158 32.035855 0.281876 -1.597174 20.016015 -0.000002 0.000001 0.000003 0.220586 -3.538244 15.622333 0.195086 -1.335131 16.624926 0.000002 0.000003 0.000001 0.000001 -0.000001 0.000003 0.000001 -0.000001 0.000003 0.000001 -0.000001 0.000001 -0.000002 0.000000 0.000001 -0.000002 0.000000 0.000001 -0.000002 0.000000 0.000001 -0.000002 0.000000 0.000002 0.000000 0.000000 -0.000000 0.000000 0.000000 -0.000000 0.000000 0.000000 -0.000000 0.000000 0.000000 -0.000000 0.000000 0.000000 -0.000000 0.000000 0.000000 -0.000000 0.000000 0.000000 -0.000000 0.000000 -0.000000 0.000000 -0.000000 -0.000000 0.000000 
0.449653 111.911377 3.002213 -89.747210 0.629220 1.213068 -0.000000 -0.000000 -0.000000 -11.861147 14.048171 22.530106 13.806999 6.026667 0.285562 29.166486 29.245296 -33.522596 0.000001 -0.000001 -0.000000 0.000001 0.000003 0.000000 -14.486165 -13.847245 -18.422939 15.205833 -5.888257 -6.630065 41.043416 -28.968144 33.843936 0.000001 -0.000001 0.000000 0.000000 -0.000001 -0.000002 0.999654 -1.042902 0.842276 -0.624389 -2.255072 0.126877 -0.586715 -2.270638 0.264826 -3.536841 -0.032893 -0.574238 -3.536822 -0.032891 -0.574240 0.000001 -0.000000 -0.000000 -3.536852 -0.032898 -0.574238 -3.536756 -0.032890 -0.574239 -0.000002 -0.000000 -0.000000 0.000001 -0.000000 -0.000000 0.565013 -2.038753 -3.968433 36.227839 -27.974493 -54.031215 -0.000006 -80.847836 -0.000021 -15.031134 -3.167387 -9.004453 6.590540 -4.958663 16.122665 7.178846 21.567325 2.147304 0.000006 -0.000001 -0.000001 0.659527 4.932358 -26.024458 0.169790 1.401621 -13.813537 -0.000003 0.000001 0.000001 1.376924 6.461955 -24.994169 0.169873 1.401962 -13.817114 0.000000 0.000001 -0.000001 2.098729 8.644286 -21.209681 0.169795 1.401616 -13.813540 0.000000 -0.000001 0.000001 2.123426 10.735875 -14.817554 0.167503 1.392250 -13.719345 -0.000003 -0.000003 0.000000 0.000002 0.000003 0.000002 0.000002 0.000003 0.000002 0.000001 0.000004 0.000003 0.000002 -0.000002 -0.000003 0.000002 -0.000002 -0.000001 0.000002 -0.000002 -0.000003 0.000001 -0.000001 -0.000003 0.532911 1.739979 13.779528 33.134607 28.142889 42.894493 0.000871 99.988444 -0.000881 -40.318736 -10.120791 11.119195 -11.190756 10.888573 4.309746 7.887738 -27.484220 -3.083854 0.000001 0.000001 0.000001 2.511595 11.547073 33.578125 0.464409 -2.029117 25.780155 -0.000001 -0.000001 -0.000001 -3.884902 1.421011 37.098692 0.501310 -2.103749 26.803508 0.000000 0.000000 -0.000002 -1.284682 -1.528349 32.422252 0.316143 -1.688251 21.211441 0.000002 0.000001 0.000001 0.259990 -3.671174 17.326569 0.236713 -1.467366 18.327711 0.000003 0.000001 0.000003 0.000001 0.000000 -0.000001 0.000001 0.000000 -0.000001 0.000002 0.000000 -0.000003 -0.000002 0.000002 0.000001 -0.000001 0.000001 0.000000 -0.000002 0.000002 0.000001 -0.000001 0.000001 0.000000 0.000000 0.000000 0.000000 0.000000 0.000000 0.000000 0.000000 0.000000 0.000000 0.000000 0.000000 0.000000 0.000000 0.000000 0.000000 0.000000 0.000000 0.000000 0.000000 0.000000 0.000000 -0.000000 -0.000000 0.000000 -0.000000 -0.000000 -0.000000 
